<svg width="512" height="512" viewBox="0 0 512 512" fill="none" xmlns="http://www.w3.org/2000/svg" xmlns:xlink="http://www.w3.org/1999/xlink" class="h-full w-full"><rect id="r4" width="461" height="461" x="25.5" y="25.5" rx="256" fill="#eab308" stroke="#000000" stroke-width="51" stroke-opacity="100%" paint-order="stroke"></rect><!----><!----><clipPath id="clip"><use xlink:href="#r4"></use></clipPath><defs><linearGradient id="linearGradient" gradientUnits="userSpaceOnUse" gradientTransform="rotate(45)" style="transform-origin: center center;"><stop stop-color="#8e2de2"></stop><stop offset="1" stop-color="#4a00e0"></stop></linearGradient><radialGradient id="glare" cx="0" cy="0" r="1" gradientUnits="userSpaceOnUse" gradientTransform="translate(256) rotate(90) scale(512)"><stop stop-color="white"></stop><stop offset="1" stop-color="white" stop-opacity="0"></stop></radialGradient></defs><svg data-v-e660a7a7="" xmlns="http://www.w3.org/2000/svg" xmlns:xlink="http://www.w3.org/1999/xlink" aria-hidden="true" role="img" class="icon" x="97.5" y="97.5" width="317px" height="317px" viewBox="0 0 24 24" style="color: rgb(0, 0, 0);"><path fill="currentColor" d="M11 3h2v18h-2V3ZM5 8a1 1 0 0 1 1-1h3V5H6a3 3 0 0 0-3 3v8a3 3 0 0 0 3 3h3v-2H6a1 1 0 0 1-1-1V8Zm14 0a1 1 0 0 0-1-1h-3V5h3a3 3 0 0 1 3 3v8a3 3 0 0 1-3 3h-3v-2h3a1 1 0 0 0 1-1V8Z"></path></svg></svg>